<!--?xml version="1.0" encoding="utf-8"?-->
<!-- Generator: Adobe Illustrator 18.1.1, SVG Export Plug-In . SVG Version: 6.00 Build 0)  -->

<svg version="1.1" id="_x32_" xmlns="http://www.w3.org/2000/svg" xmlns:xlink="http://www.w3.org/1999/xlink" x="0px" y="0px" viewBox="0 0 512 512" style="width: 32px; height: 32px; opacity: 1;" xml:space="preserve">
<style type="text/css">
	.st0{fill:#4B4B4B;}
</style>
<g>
	<path class="st0" d="M457.934,58.476c-8.831-16.106-22.662-30.398-38.778-40.989c-8.066-5.285-16.732-9.623-25.71-12.671
		C384.467,1.768,375.148,0,365.81,0c-10.756-0.009-21.604,2.394-31.448,7.92c-9.706,5.405-18.278,13.786-24.974,24.984
		l-56.708,84.398c0.479-4.78,0.719-9.448,0.719-13.951c-0.028-15.14-2.477-28.465-7.542-39.036
		c-2.57-5.268-5.838-9.936-10.24-13.537c-2.201-1.795-4.697-3.296-7.45-4.346c-2.735-1.041-5.728-1.603-8.738-1.594
		c-3.03-0.01-6.06,0.552-8.942,1.565c-2.891,1.022-5.654,2.477-8.298,4.301c-5.064,3.444-8.748,8.352-10.856,13.583
		c-2.137,5.24-2.892,10.747-2.892,16.253c0.028,9.652,2.294,19.551,5.434,29.303c4.338,13.306,10.442,26.272,15.82,36.595
		c-2.477-0.727-4.972-1.418-7.523-2.062c-14.191-3.546-29.202-5.765-42.968-5.774c-10.296,0.027-19.901,1.178-28.354,4.632
		c-4.209,1.74-8.186,4.135-11.502,7.542c-3.316,3.37-5.839,7.855-6.87,12.782c-0.378,1.776-0.581,3.591-0.581,5.405
		c-0.009,4.816,1.418,9.577,3.951,13.638c3.822,6.133,9.844,10.692,17.175,13.739c7.358,3.04,16.143,4.632,26.3,4.642
		c9.762-0.01,20.84-1.511,33.161-4.816L65.64,330.818v0.008c-7.054,7.174-12.359,15.536-15.849,24.496
		c-3.536,9.043-5.258,18.684-5.258,28.409c0.01,22.792,9.42,46.127,27.544,64.074c14.715,14.568,33.694,22.12,52.287,22.129
		c4.153,0,8.288-0.387,12.349-1.161L158.907,512l8.656-3.048c25.001-8.794,43.548-23.704,55.28-41.734l-1.262-0.82
		c0.083-0.129,0.147-0.267,0.23-0.386l1.308,0.754l120.046-205.992l114.226-136.64l0.249-0.35c6.75-9.486,9.853-20.342,9.826-30.997
		C467.457,80.853,463.792,69.214,457.934,58.476z M209.454,80.54c-0.01-3.536,0.524-6.354,1.336-8.296
		c0.837-1.962,1.749-3.122,3.305-4.218c1.345-0.93,2.477-1.474,3.352-1.787c0.884-0.304,1.501-0.386,1.98-0.386
		c0.487,0.009,0.846,0.073,1.289,0.239c0.755,0.286,1.878,0.976,3.241,2.606c2.044,2.412,4.319,6.86,5.885,12.846
		c1.593,5.986,2.542,13.454,2.542,21.806c0,9.964-1.335,21.18-4.328,32.848c-1.382-2.661-2.808-5.507-4.236-8.481
		c-3.729-7.8-7.404-16.456-10.075-24.772C211.047,94.64,209.426,86.627,209.454,80.54z M159.321,179.968
		c-10.58,0.018-17.902-2.33-21.843-4.89c-1.989-1.27-3.14-2.541-3.757-3.554c-0.626-1.022-0.792-1.759-0.802-2.56
		c0-0.304,0.028-0.636,0.111-0.995c0.248-1.068,0.571-1.666,1.381-2.541c1.178-1.262,3.942-2.92,8.316-4.042
		c4.328-1.142,10.056-1.768,16.475-1.759c11.474-0.019,25.112,1.933,37.866,5.138c4.153,1.04,8.214,2.228,12.091,3.499
		C188.513,176.791,171.726,179.986,159.321,179.968z M205.154,455.854c-7.882,12-19.615,22.415-36.117,29.846l-12.514-24.376
		c4.41-2.597,8.582-5.7,12.312-9.467c4.945-4.991,8.656-10.848,11.088-17.092c2.45-6.253,3.628-12.892,3.628-19.559
		c-0.009-15.628-6.446-31.512-18.749-43.696c-10.12-10.01-23.198-15.25-36.127-15.259c-5.663,0-11.317,1.022-16.64,3.122
		c-5.314,2.108-10.295,5.314-14.513,9.577l14.946,14.79c2.128-2.156,4.576-3.729,7.302-4.817c2.735-1.086,5.747-1.648,8.905-1.648
		c7.211-0.01,15.103,2.984,21.337,9.172c8.399,8.297,12.525,18.933,12.515,28.759c0,4.19-0.746,8.232-2.183,11.916
		c-1.436,3.684-3.564,7.027-6.446,9.946c-3.924,3.951-8.463,6.879-13.445,8.859c-4.991,1.979-10.444,2.984-16.088,2.993
		c-12.874,0-26.659-5.304-37.498-16.052c-14.219-14.071-21.319-32.148-21.309-49.138c0-7.248,1.28-14.284,3.812-20.766
		c2.532-6.474,6.299-12.404,11.382-17.542l0.102-0.102l9.079-9.641c12.81-9.107,27.692-13.758,42.96-13.777
		c20.084,0.019,40.832,8.03,58.264,25.251c18.114,17.921,27.949,42.278,27.93,65.953c0,8.942-1.427,17.754-4.263,26.144
		L205.154,455.854z M236.519,402.038c-2.625-24.846-13.914-49.074-32.691-67.684c-20.544-20.37-46.007-30.482-70.936-30.463
		c-4.706,0-9.393,0.368-14.025,1.077L230.073,186.92c7.698,0.893,24.127,3.684,41.246,11.842
		c10.433,4.954,21.097,11.862,30.444,21.42c8.481,8.684,15.895,19.569,21.208,33.502L236.519,402.038z M440.642,111.399
		L337.548,234.723c-6.4-12.736-14.476-23.289-23.344-31.807c-18.759-18.004-40.629-27.221-57.721-32.065
		c-4.522-1.271-8.703-2.238-12.442-2.984l82.962-123.499l0.166-0.267c5.12-8.666,11.04-14.237,17.45-17.838
		c6.419-3.582,13.491-5.231,21.19-5.25c8.877-0.008,18.537,2.293,27.986,6.483c14.162,6.262,27.737,16.778,37.397,28.759
		c4.834,5.986,8.711,12.312,11.308,18.538c2.616,6.234,3.951,12.34,3.942,17.994C446.415,99.455,444.702,105.506,440.642,111.399z" style="fill: rgb(0, 0, 0);"></path>
</g>
</svg>
