<!--?xml version="1.0" encoding="utf-8"?-->
<!-- Generator: Adobe Illustrator 15.1.0, SVG Export Plug-In . SVG Version: 6.00 Build 0)  -->

<svg version="1.1" id="_x32_" xmlns="http://www.w3.org/2000/svg" xmlns:xlink="http://www.w3.org/1999/xlink" x="0px" y="0px" width="512px" height="512px" viewBox="0 0 512 512" style="width: 32px; height: 32px; opacity: 1;" xml:space="preserve">
<style type="text/css">

	.st0{fill:#4B4B4B;}

</style>
<g>
	<path class="st0" d="M467.594,111.844c-4.563-6.656-9.344-13.047-14.469-19.203C406.156,36,335.281,0,256,0
		S105.844,36,58.875,92.641c-5.125,6.156-9.906,12.547-14.469,19.203C16.406,152.875,0,202.469,0,256
		c0,53.438,16.406,103.031,44.313,144.078c4.563,6.641,9.375,13.047,14.5,19.203C105.75,475.906,176.641,512,256,512
		s150.25-36.094,197.203-92.719c5.109-6.156,9.922-12.563,14.484-19.203C495.594,359.031,512,309.438,512,256
		C512,202.469,495.594,152.875,467.594,111.844z M463.531,243.969h-77.844c-0.844-29.375-4.813-57.25-11.281-82.719
		c19.391-6.031,37.422-13.438,53.516-22.125C448.594,169.359,461.313,205.281,463.531,243.969z M267.984,50.781
		c21.422,5.125,41.984,23.75,58.922,53.844c6.813,12.094,12.563,25.563,17.469,39.875c-23.844,5.625-49.594,9-76.391,9.813V50.781z
		 M243.984,50.781v103.531c-26.781-0.813-52.547-4.188-76.391-9.813c4.906-14.313,10.656-27.781,17.469-39.875
		C202,74.531,222.578,55.906,243.984,50.781z M243.984,178.313v65.656h-93.547c0.813-26.797,4.313-52.563,10.313-76.313
		C186.656,173.859,214.703,177.484,243.984,178.313z M243.984,267.969v65.719c-29.266,0.813-57.297,4.438-83.234,10.656
		c-6-23.781-9.5-49.563-10.313-76.375H243.984z M243.984,357.688v103.469c-21.406-5.125-41.984-23.766-58.922-53.844
		c-6.797-12.078-12.547-25.516-17.438-39.813C191.469,361.875,217.188,358.5,243.984,357.688z M267.984,461.156V357.688
		c26.766,0.813,52.516,4.188,76.359,9.828c-4.891,14.297-10.641,27.734-17.438,39.797
		C309.969,437.406,289.406,456.031,267.984,461.156z M267.984,333.688v-65.719h93.547c-0.813,26.797-4.313,52.563-10.313,76.344
		C325.313,338.094,297.266,334.5,267.984,333.688z M267.984,243.969v-65.656c29.266-0.813,57.328-4.438,83.25-10.641
		c5.984,23.766,9.484,49.516,10.297,76.297H267.984z M412.969,119.75c-13.688,7.094-29,13.188-45.359,18.313
		C356.859,106.031,341.875,79,324,59.453C358.75,71.531,389.375,92.531,412.969,119.75z M187.969,59.438
		c-17.875,19.563-32.859,46.594-43.609,78.625c-16.375-5.125-31.703-11.219-45.391-18.313
		C122.609,92.531,153.219,71.516,187.969,59.438z M137.578,161.219c-6.469,25.469-10.453,53.375-11.297,82.75H48.469
		c2.219-38.75,14.938-74.688,35.531-104.938C100.109,147.734,118.156,155.156,137.578,161.219z M48.469,267.969h77.813
		c0.844,29.406,4.828,57.313,11.313,82.797c-19.406,6.047-37.422,13.484-53.516,22.203
		C63.406,342.703,50.672,306.688,48.469,267.969z M99.031,392.234c13.688-7.078,29-13.172,45.344-18.297
		c10.781,32.063,25.781,59.094,43.672,78.625C153.281,440.5,122.703,419.469,99.031,392.234z M323.938,452.563
		c17.875-19.531,32.875-46.563,43.656-78.609c16.313,5.125,31.609,11.203,45.281,18.281
		C389.281,419.469,358.688,440.5,323.938,452.563z M374.391,350.719c6.469-25.469,10.453-53.375,11.297-82.75h77.844
		c-2.219,38.719-15,74.656-35.688,104.906C411.75,364.172,393.75,356.75,374.391,350.719z" style="fill: rgb(255, 255, 255);"></path>
</g>
</svg>
